<?xml version="1.0" encoding="utf-8"?>
<!-- Uploaded to: SVG Repo, www.svgrepo.com, Generator: SVG Repo Mixer Tools -->
<svg width="800px" height="800px" viewBox="0 0 1024 1024" class="icon"  version="1.1" xmlns="http://www.w3.org/2000/svg"><path d="M470.186667 169.813333L360.96 324.266667h302.08L553.813333 169.813333V85.333333s4.266667-16.213333 4.266667-25.6c0-23.893333-20.48-42.666667-46.933333-42.666666s-46.933333 18.773333-46.933334 42.666666c0 9.386667 4.266667 25.6 4.266667 25.6v84.48z" fill="#FFFFFF" /><path d="M663.04 341.333333H360.96c-5.973333 0-11.946667-3.413333-15.36-9.386666s-2.56-12.8 0.853333-17.92L452.266667 164.693333v-76.8c-1.706667-5.973333-4.266667-17.92-4.266667-28.16 0-33.28 28.16-59.733333 64-59.733333 34.986667 0 64 26.453333 64 59.733333 0 9.386667-3.413333 22.186667-4.266667 28.16v76.8l105.813334 149.333334c3.413333 5.12 4.266667 11.946667 0.853333 17.92S669.013333 341.333333 663.04 341.333333z m-268.8-34.133333h236.373333L540.16 180.053333c-1.706667-2.56-3.413333-5.973333-3.413333-10.24V85.333333c0-1.706667 0-3.413333 0.853333-5.12 1.706667-5.973333 4.266667-16.213333 4.266667-20.48 0-14.506667-12.8-25.6-29.866667-25.6s-29.866667 11.093333-29.866667 25.6c0 5.12 2.56 15.36 4.266667 20.48 0.853333 1.706667 0.853333 3.413333 0.853333 5.12v84.48c0 3.413333-0.853333 6.826667-3.413333 10.24L394.24 307.2z m75.946667-137.386667z" fill="#EC407A" /><path d="M651.946667 503.466667V384H372.053333v119.466667c-62.293333 3.413333-111.786667 54.613333-111.786666 117.76v267.946666c0 64.853333 52.906667 117.76 117.76 117.76h267.946666c64.853333 0 117.76-52.906667 117.76-117.76V621.226667c0-63.146667-49.493333-114.346667-111.786666-117.76z" fill="#FCE4EC" /><path d="M645.973333 1024H378.026667c-74.24 0-134.826667-60.586667-134.826667-134.826667V621.226667c0-66.56 47.786667-122.026667 111.786667-133.12V384c0-9.386667 7.68-17.066667 17.066666-17.066667h279.893334c9.386667 0 17.066667 7.68 17.066666 17.066667v104.96a134.826667 134.826667 0 0 1 111.786667 133.12v267.946667c0 73.386667-60.586667 133.973333-134.826667 133.973333zM389.12 401.066667v102.4c0 9.386667-6.826667 16.213333-16.213333 17.066666-53.76 2.56-95.573333 46.933333-95.573334 100.693334v267.946666c0 55.466667 45.226667 100.693333 100.693334 100.693334h267.946666c55.466667 0 100.693333-45.226667 100.693334-100.693334V621.226667c0-53.76-41.813333-98.133333-95.573334-100.693334-9.386667-0.853333-16.213333-7.68-16.213333-17.066666V401.066667H389.12z" fill="#EC407A" /><path d="M645.973333 1024H378.026667c-74.24 0-134.826667-60.586667-134.826667-134.826667V621.226667c0-66.56 47.786667-122.026667 111.786667-133.12V384c0-9.386667 7.68-17.066667 17.066666-17.066667h279.893334c9.386667 0 17.066667 7.68 17.066666 17.066667v104.96a134.826667 134.826667 0 0 1 111.786667 133.12v267.946667c0 73.386667-60.586667 133.973333-134.826667 133.973333zM389.12 401.066667v102.4c0 9.386667-6.826667 16.213333-16.213333 17.066666-53.76 2.56-95.573333 46.933333-95.573334 100.693334v267.946666c0 55.466667 45.226667 100.693333 100.693334 100.693334h267.946666c55.466667 0 100.693333-45.226667 100.693334-100.693334V621.226667c0-53.76-41.813333-98.133333-95.573334-100.693334-9.386667-0.853333-16.213333-7.68-16.213333-17.066666V401.066667H389.12z" fill="#EC407A" /><path d="M634.88 503.466667v14.506666c35.84 20.48 60.586667 58.88 60.586667 103.253334v267.946666c0 46.933333-27.306667 87.04-66.56 105.813334v11.946666c64.853333 0 117.76-52.906667 117.76-117.76V621.226667c0-63.146667-49.493333-114.346667-111.786667-117.76z" fill="#F8BBD0" /><path d="M645.973333 1024H378.026667c-74.24 0-134.826667-60.586667-134.826667-134.826667V621.226667c0-66.56 47.786667-122.026667 111.786667-133.12V384c0-9.386667 7.68-17.066667 17.066666-17.066667h279.893334c9.386667 0 17.066667 7.68 17.066666 17.066667v104.96a134.826667 134.826667 0 0 1 111.786667 133.12v267.946667c0 73.386667-60.586667 133.973333-134.826667 133.973333zM389.12 401.066667v102.4c0 9.386667-6.826667 16.213333-16.213333 17.066666-53.76 2.56-95.573333 46.933333-95.573334 100.693334v267.946666c0 55.466667 45.226667 100.693333 100.693334 100.693334h267.946666c55.466667 0 100.693333-45.226667 100.693334-100.693334V621.226667c0-53.76-41.813333-98.133333-95.573334-100.693334-9.386667-0.853333-16.213333-7.68-16.213333-17.066666V401.066667H389.12z" fill="#EC407A" /><path d="M704 452.266667h-384V306.346667c0-23.04 18.773333-41.813333 41.813333-41.813334h300.373334c23.04 0 41.813333 18.773333 41.813333 41.813334V452.266667z" fill="#F48FB1" /><path d="M704 469.333333h-384c-9.386667 0-17.066667-7.68-17.066667-17.066666V306.346667c0-32.426667 26.453333-58.88 58.88-58.88h300.373334c32.426667 0 58.88 26.453333 58.88 58.88V452.266667c0 9.386667-7.68 17.066667-17.066667 17.066666z m-366.933333-34.133333h349.866666V306.346667c0-13.653333-11.093333-24.746667-24.746666-24.746667H361.813333c-13.653333 0-24.746667 11.093333-24.746666 24.746667V435.2z" fill="#EC407A" /><path d="M772.266667 452.266667h-520.533334v-8.533334l68.266667-42.666666h384l68.266667 42.666666z" fill="#FFEE58" /><path d="M772.266667 469.333333h-520.533334c-9.386667 0-17.066667-7.68-17.066666-17.066666v-8.533334c0-5.973333 3.413333-11.093333 7.68-14.506666l68.266666-42.666667c2.56-1.706667 5.973333-2.56 9.386667-2.56h384c3.413333 0 5.973333 0.853333 9.386667 2.56l68.266666 42.666667c5.12 3.413333 7.68 8.533333 7.68 14.506666v8.533334c0 9.386667-7.68 17.066667-17.066666 17.066666z m-520.533334-25.6z m46.08-8.533333h429.226667L699.733333 418.133333H325.12l-27.306667 17.066667z" fill="#EC407A" /><path d="M516.266667 945.493333c-9.386667 0-17.066667-7.68-17.066667-17.066666v-366.933334c0-9.386667 7.68-17.066667 17.066667-17.066666s17.066667 7.68 17.066666 17.066666v366.933334c0 9.386667-7.68 17.066667-17.066666 17.066666z" fill="#EC407A" /><path d="M593.066667 641.706667h-76.8c-9.386667 0-17.066667-7.68-17.066667-17.066667s7.68-17.066667 17.066667-17.066667h76.8c9.386667 0 17.066667 7.68 17.066666 17.066667s-7.68 17.066667-17.066666 17.066667zM550.4 721.92h-34.133333c-9.386667 0-17.066667-7.68-17.066667-17.066667s7.68-17.066667 17.066667-17.066666h34.133333c9.386667 0 17.066667 7.68 17.066667 17.066666s-7.68 17.066667-17.066667 17.066667zM567.466667 801.28h-51.2c-9.386667 0-17.066667-7.68-17.066667-17.066667s7.68-17.066667 17.066667-17.066666h51.2c9.386667 0 17.066667 7.68 17.066666 17.066666s-7.68 17.066667-17.066666 17.066667zM550.4 880.64h-34.133333c-9.386667 0-17.066667-7.68-17.066667-17.066667s7.68-17.066667 17.066667-17.066666h34.133333c9.386667 0 17.066667 7.68 17.066667 17.066666s-7.68 17.066667-17.066667 17.066667z" fill="#EC407A" /><path d="M507.733333 641.706667h-76.8c-9.386667 0-17.066667-7.68-17.066666-17.066667s7.68-17.066667 17.066666-17.066667h76.8c9.386667 0 17.066667 7.68 17.066667 17.066667s-7.68 17.066667-17.066667 17.066667zM507.733333 721.92h-34.133333c-9.386667 0-17.066667-7.68-17.066667-17.066667s7.68-17.066667 17.066667-17.066666h34.133333c9.386667 0 17.066667 7.68 17.066667 17.066666s-7.68 17.066667-17.066667 17.066667zM507.733333 801.28h-51.2c-9.386667 0-17.066667-7.68-17.066666-17.066667s7.68-17.066667 17.066666-17.066666h51.2c9.386667 0 17.066667 7.68 17.066667 17.066666s-7.68 17.066667-17.066667 17.066667zM507.733333 880.64h-34.133333c-9.386667 0-17.066667-7.68-17.066667-17.066667s7.68-17.066667 17.066667-17.066666h34.133333c9.386667 0 17.066667 7.68 17.066667 17.066666s-7.68 17.066667-17.066667 17.066667z" fill="#EC407A" /></svg>